<svg xmlns="http://www.w3.org/2000/svg" xmlns:xlink="http://www.w3.org/1999/xlink" width="27" height="34" viewBox="0 0 27 34">
    <defs>
        <path id="a" d="M0 0h48v48H0z"/>
    </defs>
    <g fill="none" fill-rule="evenodd" transform="translate(-10 -7)">
        <mask id="b" fill="#fff">
            <use xlink:href="#a"/>
        </mask>
        <g mask="url(#b)">
            <path fill="#CF202E" d="M15.867 27.517a.968.968 0 0 0-.763.463c-.178.27-.119.528.055.77.843 1.18 1.672 2.37 2.54 3.53 1.61 2.154 3.427 4.143 5.193 6.173.49.562.643.58 1.16 0 1.136-1.275 2.296-2.53 3.38-3.848 1.124-1.367 2.168-2.798 3.251-4.198.186-.24.342-.511.016-.708-.662-.397-.912-1.049-1.203-1.686-.174-.382-.41-.732-.884-.74-.485-.01-.805.309-1.01.695-.23.43-.41.886-.587 1.34-.445 1.139-1.487 1.684-2.576 1.329-.5-.164-.815-.521-1.075-.958-.616-1.036-1.508-1.037-2.147-.009-.18.289-.289.62-.48.9-.626.909-1.595 1.587-2.769.734-.43-.312-.678-.711-.835-1.173-.198-.578-.482-1.124-.56-1.75-.048-.384-.23-.784-.706-.864m7.27-18.954c-2.407.095-4.642.767-6.578 2.191-2.158 1.588-3.762 3.596-4.507 6.189-.506 1.758-.654 3.514-.164 5.308.384 1.405 1.138 2.644 1.726 3.957.184.412.392.417.79.18 1.496-.892 3.142-.48 3.604 1.318.158.613.352 1.219.56 1.818.064.186.143.432.407.446.262.014.355-.21.457-.393.124-.223.225-.458.35-.68 1.154-2.046 3.531-2.135 4.856-.185.336.494.673.48.936-.07.182-.382.285-.8.455-1.187.664-1.51 2.27-2.132 3.681-1.497.803.361 1.058 1.057 1.376 1.755.314.692.791.737 1.249.138 1.084-1.418 1.762-3.046 2.46-4.66.148-.343.363-.654.417-1.054.255-1.875.3-3.713-.376-5.54-.47-1.27-1.039-2.482-1.911-3.508-2.533-2.98-5.757-4.596-9.787-4.526M10 20.195c-.018-4.068 1.653-7.412 4.73-10.04a12.663 12.663 0 0 1 5.801-2.816c1-.201 2.042-.357 2.997-.337 2.464.05 4.857.605 7.007 1.923 3.202 1.964 5.233 4.739 6.13 8.314.634 2.526.353 4.964-.716 7.35-1.816 4.05-4.483 7.549-7.26 10.983-1.342 1.658-2.738 3.271-4.235 4.798-.826.842-1.227.852-2.021-.044-1.67-1.883-3.37-3.742-4.926-5.72-2.057-2.617-4.072-5.264-5.6-8.223C10.9 24.436 9.987 22.45 10 20.195"/>
            <path fill="#046A38" d="M23.046 16.528c-1.904-.21-3.551 1.704-3.566 3.437-.016 1.867 1.722 3.54 3.6 3.56 1.306.016 3.387-1.403 3.393-3.473.007-1.962-1.713-3.79-3.427-3.524m-.02-1.506c2.514-.282 5.013 2.175 4.974 5.03-.041 2.917-2.445 4.953-4.883 4.948-2.852-.006-5.131-2.024-5.117-5.112.013-2.667 2.224-5.093 5.026-4.866"/>
            <path fill="#CF202E" d="M13.003 20.142c.016-2.69 1-5.054 2.939-6.99 1.558-1.556 3.482-2.61 5.787-2.93.437-.062.85-.25 1.31-.218.485.033.895.135.954.681.061.572-.275.773-.827.842-2.246.282-4.279 1.015-5.881 2.597-1.259 1.242-2.137 2.649-2.47 4.39-.16.842-.18 1.664-.203 2.5-.017.64-.29 1.031-.761.982-.583-.062-.83-.442-.846-.968-.01-.295-.002-.59-.002-.886"/>
            <path fill="#CF202E" d="M25.12 10c.857.095 1.741.42 2.579.87.304.162.348.428.262.718-.095.318-.36.414-.68.412-.281-.001-.54-.089-.788-.201a8.183 8.183 0 0 0-1.668-.526c-.437-.094-.881-.217-.82-.757.068-.586.582-.48 1.114-.516"/>
        </g>
    </g>
</svg>
